<?xml version="1.0" standalone="no"?>
<!DOCTYPE svg PUBLIC "-//W3C//DTD SVG 20010904//EN"
 "http://www.w3.org/TR/2001/REC-SVG-20010904/DTD/svg10.dtd">
<svg version="1.0" xmlns="http://www.w3.org/2000/svg"
 width="32.000000pt" height="32.000000pt" viewBox="0 0 32.000000 32.000000"
 preserveAspectRatio="xMidYMid meet">

<g transform="translate(0.000000,32.000000) scale(0.100000,-0.100000)"
fill="#000000" stroke="none">
<path d="M0 160 l0 -160 46 0 c29 0 43 4 39 10 -4 6 -8 34 -9 63 -3 58 -40
152 -56 142 -15 -10 -12 15 10 63 l19 42 -24 0 -25 0 0 -160z"/>
<path d="M81 263 c10 -32 21 -71 24 -88 l7 -30 17 42 c9 24 23 50 32 58 14 14
17 10 33 -42 l19 -58 21 67 c12 37 30 76 41 88 l18 20 -115 0 -115 0 18 -57z"/>
<path d="M310 281 c0 -22 -10 -57 -24 -82 -19 -33 -66 -175 -66 -196 0 -2 23
-3 50 -3 l50 0 0 160 c0 88 -2 160 -5 160 -3 0 -5 -17 -5 -39z"/>
<path d="M142 100 c-11 -25 -22 -57 -26 -72 -6 -28 -6 -28 44 -28 27 0 50 5
50 10 0 6 -6 10 -12 10 -8 0 -13 16 -14 43 0 24 -6 52 -12 63 -10 17 -13 15
-30 -26z"/>
</g>
</svg>
